<?xml version="1.0" encoding="utf-8"?>
<!-- Generator: Adobe Illustrator 21.1.0, SVG Export Plug-In . SVG Version: 6.00 Build 0)  -->
<svg version="1.1" id="Layer_1" xmlns="http://www.w3.org/2000/svg" xmlns:xlink="http://www.w3.org/1999/xlink" x="0px" y="0px"
	 viewBox="0 0 77.7 85.4" style="enable-background:new 0 0 77.7 85.4;" xml:space="preserve">
<style type="text/css">
	.st0{fill:#FFFFFF;}
	.st1{fill:#B13667;}
	.st2{fill:#FF491D;}
</style>
<polygon class="st0" points="-24.4,-21.1 -24.4,104.8 -16.6,114.9 -8.7,104.8 -0.8,114.9 7,104.8 14.9,114.9 22.8,104.8 30.6,114.9 
	38.5,104.8 46.4,114.9 54.3,104.8 62.1,114.9 70,104.8 77.9,114.9 85.7,104.8 93.6,114.9 101.5,104.8 101.5,-21.1 "/>
<g>
	<g>
		<path class="st1" d="M57.3,73.6h2.4l2.2,5.8l2.2-5.8h2.2l-3.4,8.2h-2.1L57.3,73.6z"/>
		<path class="st1" d="M75.6,71h2.1v10.8h-2.1V71z"/>
		<path class="st1" d="M56.6,75.1c-0.2-0.4-0.4-0.7-0.7-0.9c-0.3-0.3-0.7-0.5-1.1-0.6c-0.4-0.1-0.9-0.2-1.4-0.2
			c-0.5,0-0.9,0-1.3,0.1c-0.4,0.1-0.7,0.1-1,0.2c-0.3,0.1-0.5,0.2-0.7,0.3c-0.2,0.1-0.3,0.2-0.4,0.3l1.2,1.2
			c0.2-0.1,0.3-0.2,0.5-0.3c0.3-0.2,0.8-0.2,1.4-0.2c0.5,0,0.9,0.1,1.3,0.3c0.3,0.2,0.5,0.6,0.5,1v0.2c-0.2,0-0.4,0-0.6,0
			c-0.2,0-0.4,0-0.6,0c-0.2,0-0.4,0-0.5,0c-0.5,0-1,0.1-1.5,0.2c-0.4,0.1-0.8,0.3-1.1,0.6c-0.3,0.2-0.6,0.6-0.7,0.9
			c-0.2,0.4-0.3,0.8-0.3,1.2c0,0.5,0.1,0.8,0.3,1.2c0.2,0.3,0.4,0.6,0.7,0.8c0.3,0.2,0.6,0.4,0.9,0.5c0.3,0.1,0.7,0.2,1,0.2
			c0.6,0,1.1-0.1,1.5-0.3c0.5-0.2,0.8-0.4,1-0.7l0.1,0.8h1.9v-5.5C56.8,75.8,56.7,75.4,56.6,75.1z M54.8,78.9c0,0.2-0.1,0.4-0.2,0.6
			c-0.1,0.2-0.3,0.3-0.4,0.5c-0.2,0.1-0.4,0.2-0.6,0.3c-0.2,0.1-0.5,0.1-0.7,0.1c-0.5,0-0.9-0.1-1.1-0.3c-0.2-0.2-0.4-0.5-0.4-0.8
			c0-0.3,0.1-0.6,0.4-0.9c0.3-0.3,0.7-0.4,1.4-0.4c0.1,0,0.3,0,0.5,0c0.2,0,0.4,0,0.5,0c0.2,0,0.4,0,0.6,0V78.9z"/>
		<path class="st1" d="M41.8,80c-0.1,0.1-0.2,0.1-0.3,0.2c-0.2,0.1-0.4,0.1-0.8,0.1c-0.3,0-0.6-0.1-0.8-0.4
			c-0.2-0.2-0.2-0.6-0.2-1.1v-3.6H42v-1.7h-2.2V71h-2.1v2.6H35l1.7,1.7h1.1V79c0,0.5,0,0.9,0.1,1.2c0.1,0.4,0.2,0.7,0.5,1
			c0.2,0.3,0.5,0.5,0.8,0.6c0.3,0.1,0.8,0.2,1.3,0.2c0.5,0,0.9-0.1,1.3-0.2c0.4-0.1,0.8-0.4,1.2-0.7L41.8,80z"/>
		<path class="st1" d="M48.8,73.5c-0.1,0-0.3,0-0.5,0c-0.3,0-0.6,0-0.9,0.1c-0.3,0.1-0.5,0.2-0.7,0.3c-0.2,0.1-0.4,0.2-0.5,0.4
			c-0.1,0.1-0.3,0.3-0.4,0.4l-0.1-1h-2v8.2h2.1v-4.4c0-0.3,0.1-0.6,0.2-0.8c0.1-0.2,0.3-0.5,0.4-0.6c0.2-0.2,0.4-0.3,0.7-0.4
			c0.3-0.1,0.5-0.1,0.8-0.1c0.2,0,0.4,0,0.5,0c0.1,0,0.2,0.1,0.3,0.1V73.5z"/>
		<path class="st1" d="M73.2,79.4c-0.1,0.1-0.1,0.1-0.3,0.2c-0.1,0.1-0.3,0.2-0.5,0.3c-0.2,0.1-0.5,0.2-0.8,0.3
			c-0.3,0.1-0.6,0.1-1,0.1c-0.3,0-0.5,0-0.8-0.1c-0.3-0.1-0.5-0.2-0.7-0.4c-0.2-0.2-0.4-0.4-0.5-0.6c-0.1-0.2-0.2-0.5-0.2-0.8h6.1
			V78c0-0.6-0.1-1.1-0.2-1.7c-0.1-0.6-0.4-1.1-0.7-1.5c-0.3-0.4-0.7-0.8-1.2-1.1c-0.5-0.3-1.1-0.4-1.9-0.4c-0.6,0-1.2,0.1-1.7,0.3
			c-0.5,0.2-0.9,0.5-1.3,0.9c-0.4,0.4-0.7,0.8-0.9,1.3c-0.2,0.5-0.3,1.1-0.3,1.7c0,0.7,0.1,1.3,0.3,1.8c0.2,0.5,0.5,1,0.9,1.4
			c0.4,0.4,0.8,0.7,1.4,0.9c0.5,0.2,1.1,0.3,1.8,0.3c0.6,0,1.2-0.1,1.6-0.2c0.5-0.1,0.8-0.3,1.1-0.5c0.3-0.2,0.5-0.3,0.7-0.5
			c0.1-0.1,0.1-0.1,0.2-0.2L73.2,79.4z M68.5,76.2c0.1-0.2,0.2-0.4,0.4-0.6c0.2-0.2,0.4-0.3,0.7-0.4c0.3-0.1,0.6-0.2,0.9-0.2
			c0.3,0,0.6,0.1,0.8,0.2c0.2,0.1,0.4,0.2,0.6,0.4c0.2,0.2,0.3,0.4,0.4,0.6c0.1,0.2,0.1,0.4,0.1,0.6h-4
			C68.3,76.6,68.4,76.4,68.5,76.2z"/>
		<path class="st2" d="M19,79.4c0.3,0.3,0.6,0.5,1,0.6c0.4,0.2,0.8,0.3,1.3,0.3c0.4,0,0.8-0.1,1.1-0.2c0.3-0.1,0.4-0.3,0.4-0.6
			c0-0.1,0-0.2-0.1-0.3c0-0.1-0.1-0.2-0.3-0.3c-0.2-0.1-0.4-0.2-0.6-0.3c-0.3-0.1-0.6-0.2-1.1-0.3c-0.3-0.1-0.6-0.2-0.9-0.3
			c-0.3-0.1-0.6-0.3-0.8-0.5c-0.3-0.2-0.5-0.4-0.6-0.7c-0.2-0.3-0.3-0.6-0.3-1c0-0.4,0.1-0.8,0.3-1.1c0.2-0.3,0.5-0.6,0.8-0.8
			c0.3-0.2,0.7-0.4,1.1-0.5c0.4-0.1,0.8-0.2,1.2-0.2c0.7,0,1.3,0.1,1.8,0.2c0.5,0.2,1,0.4,1.4,0.7l-1.1,1.4
			c-0.2-0.2-0.5-0.3-0.9-0.4c-0.4-0.1-0.8-0.2-1.3-0.2c-0.5,0-0.8,0.1-1,0.2c-0.2,0.1-0.3,0.3-0.3,0.5c0,0.3,0.2,0.5,0.5,0.6
			c0.3,0.1,0.8,0.3,1.5,0.5c0.4,0.1,0.8,0.2,1.1,0.3c0.3,0.1,0.6,0.3,0.9,0.5c0.2,0.2,0.4,0.5,0.5,0.7c0.1,0.3,0.2,0.6,0.2,1
			c0,0.4-0.1,0.8-0.3,1.1c-0.2,0.3-0.4,0.6-0.8,0.8c-0.3,0.2-0.7,0.4-1.1,0.5C22.2,82,21.7,82,21.3,82c-0.8,0-1.5-0.1-2.1-0.3
			c-0.6-0.2-1.1-0.5-1.5-0.9L19,79.4z"/>
		<path class="st2" d="M26.7,83.4c0.1,0.1,0.2,0.2,0.4,0.3c0.1,0.1,0.3,0.1,0.5,0.1c0.3,0,0.5-0.1,0.7-0.3c0.2-0.2,0.4-0.6,0.6-1.1
			l0.3-0.7l-3.7-8.1h2.4l2.3,5.6l2.1-5.6h2.2L31,81.7c-0.2,0.4-0.3,0.8-0.5,1.3c-0.2,0.4-0.4,0.8-0.6,1.2c-0.2,0.4-0.5,0.7-0.9,0.9
			c-0.3,0.2-0.8,0.3-1.3,0.3c-0.5,0-0.8-0.1-1.2-0.2c-0.3-0.1-0.6-0.3-0.8-0.5L26.7,83.4z"/>
		<path class="st2" d="M16.4,75.1c-0.2-0.4-0.4-0.7-0.7-0.9c-0.3-0.3-0.7-0.5-1.1-0.6c-0.4-0.1-0.9-0.2-1.4-0.2
			c-0.5,0-0.9,0-1.3,0.1c-0.4,0.1-0.7,0.1-1,0.2c-0.3,0.1-0.5,0.2-0.7,0.3c-0.2,0.1-0.3,0.2-0.4,0.3l1.2,1.2
			c0.2-0.1,0.3-0.2,0.5-0.3c0.3-0.2,0.8-0.2,1.4-0.2c0.5,0,0.9,0.1,1.3,0.3c0.3,0.2,0.5,0.6,0.5,1v0.2c-0.2,0-0.4,0-0.6,0
			c-0.2,0-0.4,0-0.6,0c-0.2,0-0.4,0-0.5,0c-0.5,0-1,0.1-1.5,0.2c-0.4,0.1-0.8,0.3-1.1,0.6c-0.3,0.2-0.6,0.6-0.7,0.9
			c-0.2,0.4-0.3,0.8-0.3,1.2c0,0.5,0.1,0.8,0.3,1.2c0.2,0.3,0.4,0.6,0.7,0.8c0.3,0.2,0.6,0.4,0.9,0.5c0.3,0.1,0.7,0.2,1,0.2
			c0.6,0,1.1-0.1,1.5-0.3c0.5-0.2,0.8-0.4,1-0.7l0.1,0.8h1.9v-5.5C16.6,75.8,16.5,75.4,16.4,75.1z M14.6,78.9c0,0.2-0.1,0.4-0.2,0.6
			c-0.1,0.2-0.3,0.3-0.4,0.5c-0.2,0.1-0.4,0.2-0.6,0.3c-0.2,0.1-0.5,0.1-0.7,0.1c-0.5,0-0.9-0.1-1.1-0.3c-0.2-0.2-0.4-0.5-0.4-0.8
			c0-0.3,0.1-0.6,0.4-0.9c0.3-0.3,0.7-0.4,1.4-0.4c0.1,0,0.3,0,0.5,0c0.2,0,0.4,0,0.5,0c0.2,0,0.4,0,0.6,0V78.9z"/>
		<path class="st2" d="M7,79.4c-0.1,0.1-0.1,0.1-0.3,0.2c-0.1,0.1-0.3,0.2-0.5,0.3C6,80,5.8,80.1,5.5,80.2c-0.3,0.1-0.6,0.1-1,0.1
			c-0.3,0-0.5,0-0.8-0.1c-0.3-0.1-0.5-0.2-0.7-0.4c-0.2-0.2-0.4-0.4-0.5-0.6c-0.1-0.2-0.2-0.5-0.2-0.8h6.1V78c0-0.6-0.1-1.1-0.2-1.7
			c-0.1-0.6-0.4-1.1-0.7-1.5c-0.3-0.4-0.7-0.8-1.2-1.1c-0.5-0.3-1.1-0.4-1.9-0.4c-0.6,0-1.2,0.1-1.7,0.3c-0.5,0.2-0.9,0.5-1.3,0.9
			c-0.4,0.4-0.7,0.8-0.9,1.3c-0.2,0.5-0.3,1.1-0.3,1.7c0,0.7,0.1,1.3,0.3,1.8c0.2,0.5,0.5,1,0.9,1.4c0.4,0.4,0.8,0.7,1.4,0.9
			C3.2,81.9,3.8,82,4.4,82c0.6,0,1.2-0.1,1.6-0.2c0.5-0.1,0.8-0.3,1.1-0.5c0.3-0.2,0.5-0.3,0.7-0.5C7.9,80.8,8,80.7,8,80.7L7,79.4z
			 M2.3,76.2c0.1-0.2,0.2-0.4,0.4-0.6c0.2-0.2,0.4-0.3,0.7-0.4C3.6,75.1,3.9,75,4.2,75c0.3,0,0.6,0.1,0.8,0.2
			c0.2,0.1,0.4,0.2,0.6,0.4C5.8,75.8,6,76,6,76.2c0.1,0.2,0.1,0.4,0.1,0.6h-4C2.2,76.6,2.2,76.4,2.3,76.2z"/>
	</g>
	<g>
		<path class="st2" d="M38.9,0c-9.7,0-18,6-21.5,14.5h12c2.3-2.6,5.7-4.2,9.5-4.2c7.1,0,12.8,5.8,12.8,12.8v1.7H40.4v10.3H62V23.1
			C62,10.4,51.6,0,38.9,0z"/>
		<path class="st1" d="M51,41.2c-1.8,5-6.5,8.6-12.1,8.6c-7.1,0-12.8-5.8-12.8-12.8v-1.7h11.5V24.9H26.1v-1.7c0-2.1,0.5-4.1,1.4-5.8
			h-11c-0.5,1.9-0.7,3.8-0.7,5.8v1.7H0l8.1,10.3h7.7v1.7c0,12.8,10.4,23.1,23.1,23.1c7.9,0,14.9-4,19-10L51,41.2z"/>
	</g>
</g>
</svg>
